<?xml version="1.0" encoding="utf-8"?>

<!DOCTYPE svg PUBLIC "-//W3C//DTD SVG 1.1//EN" "http://www.w3.org/Graphics/SVG/1.1/DTD/svg11.dtd">
<!-- Uploaded to: SVG Repo, www.svgrepo.com, Generator: SVG Repo Mixer Tools -->
<svg height="800px" width="800px" version="1.1" id="_x32_" xmlns="http://www.w3.org/2000/svg" xmlns:xlink="http://www.w3.org/1999/xlink" 
	 viewBox="0 0 512 512"  xml:space="preserve">
<style type="text/css">
	.st0{fill:#000000;}
</style>
<g>
	<path class="st0" d="M397.814,0h-18.375c-5.36,0-10.455,2.324-13.983,6.36L253.619,134.672
		c-13.999,16.133-49.378,26.558-79.026,23.303c-29.663-3.263-42.344-18.988-28.346-35.128L251.65,12.552
		c2.044-2.15,2.626-5.314,1.454-8.048C251.938,1.772,249.25,0,246.282,0H229.3c-4.966,0-9.721,1.983-13.204,5.519l-91.434,92.66
		c-18.761,19.632-17.89,30.542-17.89,61.082c0,21.82,0,301.065,0,301.065c0,26.196,32.918,47.818,62.573,51.074
		c29.655,3.271,70.274-7.17,84.272-23.304l138.139-160.45c8.691-10.108,13.476-22.993,13.476-36.318V7.419
		C405.233,3.324,401.91,0,397.814,0z"/>
</g>
</svg>