<?xml version="1.0" encoding="utf-8"?><!-- Uploaded to: SVG Repo, www.svgrepo.com, Generator: SVG Repo Mixer Tools -->
<svg fill="#000000" width="800px" height="800px" viewBox="0 0 50 50" xmlns="http://www.w3.org/2000/svg" xmlns:xlink="http://www.w3.org/1999/xlink"><path d="M11.3125 0L2.5625 24L47.4375 24L38.6875 0 Z M 18.65625 25C18.261719 25.667969 18 26.453125 18 27.40625C18 30.199219 18.9375 32.011719 19.84375 33.75C20.714844 35.417969 21.617188 37.152344 21.90625 40L28.09375 40C28.382813 37.152344 29.285156 35.417969 30.15625 33.75C31.0625 32.011719 32 30.199219 32 27.40625C32 26.453125 31.734375 25.667969 31.34375 25 Z M 17 41C15.898438 41 15 41.898438 15 43L35 43C35 41.898438 34.101563 41 33 41 Z M 12 44C10.898438 44 10 44.898438 10 46L10 50L40 50L40 46C40 44.898438 39.101563 44 38 44Z"/></svg>