<?xml version="1.0" encoding="utf-8"?><!-- Uploaded to: SVG Repo, www.svgrepo.com, Generator: SVG Repo Mixer Tools -->
<svg width="800px" height="800px" viewBox="0 0 24 24" fill="none" xmlns="http://www.w3.org/2000/svg">
<path d="M10.5021 1.40276C10.9577 1.14026 11.4742 1.00208 12 1.00208C12.5258 1.00208 13.0424 1.14027 13.4979 1.4028L13.5 1.404L20.5 5.40399C20.6632 5.49822 20.8165 5.60722 20.9581 5.72926L11.9999 10.8482L3.0418 5.72931C3.18347 5.60725 3.33678 5.49823 3.5 5.404L3.50386 5.40177L10.5021 1.40276Z" fill="#000000"/>
<path d="M2.04843 7.46517C2.01651 7.64064 2.00018 7.81927 2 7.999V16.0011C2.00054 16.5271 2.13941 17.0438 2.40269 17.4993C2.66597 17.9548 3.04439 18.333 3.5 18.5961L3.50386 18.5983L10.5 22.5961L10.5019 22.5971C10.6612 22.689 10.828 22.7656 11 22.8264V12.5804L2.04843 7.46517Z" fill="#000000"/>
<path d="M13 22.8264C13.1721 22.7656 13.3389 22.6889 13.4982 22.5971L13.5 22.5961L20.4961 18.5983L20.5 18.5961C20.9556 18.333 21.334 17.9548 21.5973 17.4993C21.8606 17.0438 21.9995 16.5271 22 16.0011V7.999C21.9998 7.81925 21.9835 7.64059 21.9516 7.4651L13 12.5803V22.8264Z" fill="#000000"/>
</svg>