<?xml version="1.0" encoding="utf-8"?>

<!-- Uploaded to: SVG Repo, www.svgrepo.com, Generator: SVG Repo Mixer Tools -->
<svg version="1.1" id="Icons" xmlns="http://www.w3.org/2000/svg" xmlns:xlink="http://www.w3.org/1999/xlink" 
	 viewBox="0 0 32 32" xml:space="preserve">
<style type="text/css">
	.st0{fill:none;stroke:#000000;stroke-width:2;stroke-linecap:round;stroke-linejoin:round;stroke-miterlimit:10;}
</style>
<path d="M29.7,15.3c-0.4-0.4-1-0.4-1.4,0c-0.6,0.6-1.6,0.7-2.3,0.2c-0.1-2-0.8-3.8-1.9-5.3c1.2-0.6,2.1-1.9,2.1-3.4c0-0.6-0.4-1-1-1
	s-1,0.4-1,1c0,0.9-0.6,1.6-1.5,1.8c-1.4-1.3-3.1-2.1-5.1-2.5c0.4-1.3,0.1-2.8-0.9-3.9c-0.4-0.4-1-0.4-1.4,0s-0.4,1,0,1.4
	C15.9,4.3,16,5.3,15.5,6c-2,0.1-3.8,0.8-5.3,1.9C9.5,6.7,8.3,5.8,6.8,5.8c-0.6,0-1,0.4-1,1s0.4,1,1,1c0.9,0,1.6,0.6,1.8,1.5
	c-1.3,1.4-2.1,3.1-2.5,5.1c-1.3-0.4-2.8-0.1-3.9,0.9c-0.4,0.4-0.4,1,0,1.4s1,0.4,1.4,0C4.3,16.1,5.3,16,6,16.5
	c0.1,2,0.8,3.8,1.9,5.3c-1.2,0.6-2.1,1.9-2.1,3.4c0,0.6,0.4,1,1,1s1-0.4,1-1c0-0.9,0.6-1.6,1.5-1.8c1.4,1.3,3.1,2.1,5.1,2.5
	c-0.4,1.3-0.1,2.8,0.9,3.9c0.2,0.2,0.5,0.3,0.7,0.3s0.5-0.1,0.7-0.3c0.4-0.4,0.4-1,0-1.4c-0.6-0.6-0.7-1.6-0.2-2.3
	c2-0.1,3.8-0.8,5.3-1.9c0.6,1.2,1.9,2.1,3.4,2.1c0.6,0,1-0.4,1-1s-0.4-1-1-1c-0.9,0-1.6-0.6-1.8-1.5c1.3-1.4,2.1-3.1,2.5-5.1
	c0.4,0.1,0.8,0.2,1.1,0.2c1,0,2-0.4,2.7-1.1C30.1,16.3,30.1,15.7,29.7,15.3z M13.5,21c-1.4,0-2.5-1.1-2.5-2.5s1.1-2.5,2.5-2.5
	s2.5,1.1,2.5,2.5S14.9,21,13.5,21z M15.7,11.7l-3,3C12.5,14.9,12.3,15,12,15s-0.5-0.1-0.7-0.3c-0.4-0.4-0.4-1,0-1.4l3-3
	c0.4-0.4,1-0.4,1.4,0S16.1,11.3,15.7,11.7z M19.7,16.3c0.1,0.1,0.3,0.4,0.3,0.7c0,0.6-0.4,1-1,1s-1-0.4-1-1c0-0.4,0.2-0.6,0.3-0.7
	c0.2-0.2,0.3-0.5,0.3-0.8s-0.1-0.6-0.3-0.8C18.2,14.6,18,14.4,18,14c0-0.6,0.4-1,1-1s1,0.4,1,1c0,0.4-0.2,0.6-0.3,0.7
	c-0.2,0.2-0.3,0.5-0.3,0.8S19.4,16.1,19.7,16.3z"/>
</svg>