<?xml version="1.0" encoding="UTF-8"?>
<svg width="20px" height="20px" viewBox="0 0 20 20" version="1.1" xmlns="http://www.w3.org/2000/svg">
    <title>Crown</title>
    <defs>
        <linearGradient x1="0%" y1="0%" x2="100%" y2="100%" id="crownGradient">
            <stop stop-color="#FCD34D" offset="0%"></stop>
            <stop stop-color="#F59E0B" offset="100%"></stop>
        </linearGradient>
    </defs>
    <g stroke="none" stroke-width="1" fill="none" fill-rule="evenodd">
        <path d="M9.46,2 C9.30653,2.00061 9.15784,2.05458 9.0397,2.15413 C8.92155,2.25368 8.84063,2.39304 8.81,2.544 L7.94,7.126 L5.08,4.266 C4.96121,4.1471 4.80096,4.0793 4.634,4.07552 C4.46704,4.07174 4.30407,4.13228 4.18,4.2445 C4.05602,4.35637 3.98089,4.51448 3.97387,4.68079 C3.96686,4.8471 4.02865,5.01087 4.144,5.134 L7.004,7.994 L2.41,8.864 C2.25812,8.89381 2.12032,8.97644 2.02345,9.09677 C1.92658,9.21709 1.8765,9.36831 1.88,9.523 C1.88359,9.67761 1.95064,9.82374 2.06698,9.929 C2.18333,10.0343 2.33862,10.0871 2.493,10.076 L7.853,9.691 L9.44,16.846 L10.56,16.846 L12.147,9.691 L17.507,10.076 C17.661,10.0872 17.8156,10.0343 17.932,9.92917 C18.0483,9.82401 18.1154,9.67799 18.1191,9.5235 C18.1227,9.36901 18.0728,9.21791 17.9761,9.10748 C17.8793,8.99705 17.7418,8.91414 17.59,8.884 L12.996,8.014 L15.826,5.184 C15.9416,5.06206 16.0047,4.90019 16.0013,4.73367 C15.9978,4.56715 15.9282,4.40765 15.8079,4.2907 C15.6876,4.17375 15.5261,4.10866 15.3599,4.11114 C15.1937,4.11361 15.0343,4.18347 14.918,4.304 L11.96,7.126 L11.09,2.544 C11.0599,2.39227 10.9789,2.25199 10.8602,2.15185 C10.7414,2.05171 10.5918,1.99754 10.437,1.997 L9.46,2 Z M2.5,14 C2.36739,14 2.24021,14.0527 2.14645,14.1464 C2.05268,14.2402 2,14.3674 2,14.5 L2,15.5 C2,16.0304 2.21071,16.5391 2.58579,16.9142 C2.96086,17.2893 3.46957,17.5 4,17.5 L16,17.5 C16.5304,17.5 17.0391,17.2893 17.4142,16.9142 C17.7893,16.5391 18,16.0304 18,15.5 L18,14.5 C18,14.3674 17.9473,14.2402 17.8536,14.1464 C17.7598,14.0527 17.6326,14 17.5,14 L2.5,14 Z" fill="url(#crownGradient)" fill-rule="nonzero"></path>
    </g>
</svg>