<?xml version="1.0" encoding="UTF-8"?>
<svg width="20px" height="20px" viewBox="0 0 20 20" version="1.1" xmlns="http://www.w3.org/2000/svg">
    <title>Database</title>
    <defs>
        <linearGradient x1="0%" y1="0%" x2="100%" y2="100%" id="databaseGradient">
            <stop stop-color="#67E8F9" offset="0%"></stop>
            <stop stop-color="#06B6D4" offset="100%"></stop>
        </linearGradient>
    </defs>
    <g stroke="none" stroke-width="1" fill="none" fill-rule="evenodd">
        <path d="M10,4 C5.58,4 2,5.79 2,8 L2,16 C2,18.21 5.59,20 10,20 C14.41,20.01 18,18.21 18,16 L18,8 C18,5.79 14.42,4 10,4 Z M10,16 C6.46,16 4,14.91 4,14 L4,12.34 C5.44,13.01 7.61,13.35 10,13.35 C12.39,13.35 14.56,13.01 16,12.34 L16,14 C16,14.91 13.54,16 10,16 Z M10,11.35 C6.46,11.35 4,10.26 4,9.35 L4,7.69 C5.44,8.36 7.61,8.7 10,8.7 C12.39,8.7 14.56,8.36 16,7.69 L16,9.35 C16,10.26 13.54,11.35 10,11.35 Z M10,6.7 C6.46,6.7 4,5.61 4,4.7 C4,3.79 6.46,2.7 10,2.7 C13.54,2.7 16,3.79 16,4.7 C16,5.61 13.54,6.7 10,6.7 Z" fill="url(#databaseGradient)" fill-rule="nonzero"></path>
    </g>
</svg>