<?xml version="1.0" encoding="UTF-8"?>
<svg width="24px" height="24px" viewBox="0 0 24 24" version="1.1" xmlns="http://www.w3.org/2000/svg" xmlns:xlink="http://www.w3.org/1999/xlink">
    <g stroke="none" stroke-width="1" fill="none" fill-rule="evenodd">
        <g fill="#000000" fill-rule="nonzero">
            <path d="M12,2 C6.49,2 2,3.34 2,5 L2,19 C2,20.66 6.49,22 12,22 C17.51,22 22,20.66 22,19 L22,5 C22,3.34 17.51,2 12,2 Z M12,4 C16.96,4 20,5.12 20,6 C20,6.88 16.96,8 12,8 C7.04,8 4,6.88 4,6 C4,5.12 7.04,4 12,4 Z M12,20 C7.04,20 4,18.88 4,18 L4,14.76 C5.85,15.55 8.91,16 12,16 C15.09,16 18.15,15.55 20,14.76 L20,18 C20,18.88 16.96,20 12,20 Z M12,14 C7.04,14 4,12.88 4,12 L4,8.76 C5.85,9.55 8.91,10 12,10 C15.09,10 18.15,9.55 20,8.76 L20,12 C20,12.88 16.96,14 12,14 Z"></path>
        </g>
    </g>
</svg>