<?xml version="1.0" encoding="utf-8"?>

<!DOCTYPE svg PUBLIC "-//W3C//DTD SVG 1.1//EN" "http://www.w3.org/Graphics/SVG/1.1/DTD/svg11.dtd">
<!-- Uploaded to: SVG Repo, www.svgrepo.com, Generator: SVG Repo Mixer Tools -->
<svg height="800px" width="800px" version="1.1" id="_x32_" xmlns="http://www.w3.org/2000/svg" xmlns:xlink="http://www.w3.org/1999/xlink" 
	 viewBox="0 0 512 512"  xml:space="preserve">
<style type="text/css">
	.st0{fill:#000000;}
</style>
<g>
	<path class="st0" d="M257.883,34.655c9.58,0.021,17.345-7.734,17.356-17.31C275.246,7.776,267.505,0.021,257.936,0
		c-9.587-0.007-17.349,7.742-17.349,17.31C240.566,26.886,248.311,34.648,257.883,34.655z"/>
	<path class="st0" d="M250.743,92.764c5.632,0.028,10.194-4.538,10.194-10.174c0.011-5.636-4.54-10.201-10.166-10.208
		c-5.632,0-10.204,4.566-10.215,10.194C240.556,88.206,245.118,92.764,250.743,92.764z"/>
	<path class="st0" d="M270.857,57.087c0,6.741,5.452,12.189,12.185,12.203c6.713,0,12.189-5.427,12.189-12.168
		c0.01-6.72-5.434-12.189-12.168-12.189C276.33,44.912,270.865,50.367,270.857,57.087z"/>
	<path class="st0" d="M368.309,286.514c-8.933-11.807-19.614-22.106-31.736-30.591c-8.728-6.101-18.054-11.167-27.852-15.114
		v-81.972c5.354-4.767,8.718-11.703,8.718-19.409c0-14.343-11.658-26.01-25.997-26.01h-70.882c-14.34,0-25.997,11.668-25.997,26.01
		c0,7.706,3.374,14.642,8.718,19.409v81.972c-9.788,3.947-19.124,9.013-27.838,15.114c-12.13,8.485-22.818,18.784-31.744,30.591
		c-18.582,24.572-28.412,53.89-28.412,84.779c0,37.588,14.646,72.925,41.223,99.491C183.083,497.365,218.419,512,256.004,512
		c37.588,0,72.92-14.635,99.498-41.216c26.581-26.566,41.212-61.904,41.212-99.491C396.713,340.404,386.894,311.086,368.309,286.514
		z M327.695,445.823c-19.384,18.658-44.85,28.936-71.691,28.936c-57.046,0-103.456-46.421-103.456-103.466
		c0-1.556,0.035-3.162,0.108-4.774c14.361-4.85,28.026-7.199,41.747-7.199c24.357,0,45.204,7.616,65.353,14.975
		c20.156,7.366,39.19,14.336,61.222,14.336c12.801,0,25.267-2.39,38.009-7.296C356.614,405.81,345.578,428.617,327.695,445.823z"/>
</g>
</svg>