<?xml version="1.0" encoding="UTF-8"?>
<svg width="20px" height="20px" viewBox="0 0 20 20" version="1.1" xmlns="http://www.w3.org/2000/svg">
    <title>Fork</title>
    <defs>
        <linearGradient x1="0%" y1="0%" x2="100%" y2="100%" id="forkGradient">
            <stop stop-color="#A78BFA" offset="0%"></stop>
            <stop stop-color="#8B5CF6" offset="100%"></stop>
        </linearGradient>
    </defs>
    <g stroke="none" stroke-width="1" fill="none" fill-rule="evenodd">
        <path d="M5,2 C3.89543,2 3,2.89543 3,4 C3,4.74 3.4,5.39 4,5.73 L4,14.27 C3.4,14.61 3,15.26 3,16 C3,17.1046 3.89543,18 5,18 C6.10457,18 7,17.1046 7,16 C7,15.26 6.6,14.61 6,14.27 L6,9.73 C6.6,9.39 7,8.74 7,8 C7,7.26 6.6,6.61 6,6.27 L6,5.73 C6.6,5.39 7,4.74 7,4 C7,2.89543 6.10457,2 5,2 Z M15,11.27 C15.6,11.61 16,12.26 16,13 C16,14.1046 15.1046,15 14,15 C12.8954,15 12,14.1046 12,13 C12,12.26 12.4,11.61 13,11.27 L13,8.73 C12.4,8.39 12,7.74 12,7 C12,5.89543 12.8954,5 14,5 C15.1046,5 16,5.89543 16,7 C16,7.74 15.6,8.39 15,8.73 L15,9 C15,9.88 15.36,10.67 15.91,11.21 C15.94,11.24 15.96,11.26 15.99,11.29 C16,11.29 16,11.28 16,11.27 L15,11.27 Z M5,4 C5,3.44772 5.44772,3 6,3 C6.55228,3 7,3.44772 7,4 C7,4.55228 6.55228,5 6,5 C5.44772,5 5,4.55228 5,4 Z M5,16 C5,15.4477 5.44772,15 6,15 C6.55228,15 7,15.4477 7,16 C7,16.5523 6.55228,17 6,17 C5.44772,17 5,16.5523 5,16 Z M14,6 C13.4477,6 13,6.44772 13,7 C13,7.55228 13.4477,8 14,8 C14.5523,8 15,7.55228 15,7 C15,6.44772 14.5523,6 14,6 Z M14,13 C13.4477,13 13,13.4477 13,14 C13,14.5523 13.4477,15 14,15 C14.5523,15 15,14.5523 15,14 C15,13.4477 14.5523,13 14,13 Z" fill="url(#forkGradient)" fill-rule="nonzero"></path>
    </g>
</svg>