<?xml version="1.0" encoding="UTF-8"?>
<svg width="24px" height="24px" viewBox="0 0 24 24" version="1.1" xmlns="http://www.w3.org/2000/svg" xmlns:xlink="http://www.w3.org/1999/xlink">
    <g stroke="none" stroke-width="1" fill="none" fill-rule="evenodd">
        <g fill="#000000" fill-rule="nonzero">
            <path d="M18,8.83 L18,6 C18,4.89 17.11,4 16,4 L8,4 C6.9,4 6,4.89 6,6 L6,8.83 L9,12 L6,15.17 L6,18 C6,19.1 6.9,20 8,20 L16,20 C17.11,20 18,19.1 18,18 L18,15.17 L15,12 L18,8.83 Z M16,6 L16,8.1 L14,10.1 L14,6 L16,6 Z M8,6 L10,6 L10,10.1 L8,8.1 L8,6 Z M10,18 L8,18 L8,15.9 L10,13.9 L10,18 Z M14,18 L14,13.9 L16,15.9 L16,18 L14,18 Z"></path>
        </g>
    </g>
</svg>