<?xml version="1.0" encoding="UTF-8"?>
<svg width="20px" height="20px" viewBox="0 0 20 20" version="1.1" xmlns="http://www.w3.org/2000/svg">
    <title>Fork</title>
    <defs>
        <linearGradient x1="0%" y1="0%" x2="100%" y2="100%" id="forkGradient">
            <stop stop-color="#A78BFA" offset="0%"></stop>
            <stop stop-color="#8B5CF6" offset="100%"></stop>
        </linearGradient>
    </defs>
    <g stroke="none" stroke-width="1" fill="none" fill-rule="evenodd">
        <path d="M5,2 C3.34315,2 2,3.34315 2,5 C2,6.30622 2.83481,7.41746 4,7.82929 L4,12.1707 C2.83481,12.5825 2,13.6938 2,15 C2,16.6569 3.34315,18 5,18 C6.65685,18 8,16.6569 8,15 C8,13.6938 7.16519,12.5825 6,12.1707 L6,7.82929 C7.16519,7.41746 8,6.30622 8,5 C8,3.34315 6.65685,2 5,2 Z M15,6 C13.3431,6 12,7.34315 12,9 C12,10.3062 12.8348,11.4175 14,11.8293 L14,12.1707 C12.8348,12.5825 12,13.6938 12,15 C12,16.6569 13.3431,18 15,18 C16.6569,18 18,16.6569 18,15 C18,13.6938 17.1652,12.5825 16,12.1707 L16,11.8293 C17.1652,11.4175 18,10.3062 18,9 C18,7.34315 16.6569,6 15,6 Z M5,4 C5.55229,4 6,4.44772 6,5 C6,5.55228 5.55229,6 5,6 C4.44771,6 4,5.55228 4,5 C4,4.44772 4.44771,4 5,4 Z M5,14 C5.55229,14 6,14.4477 6,15 C6,15.5523 5.55229,16 5,16 C4.44771,16 4,15.5523 4,15 C4,14.4477 4.44771,14 5,14 Z M15,8 C15.5523,8 16,8.44772 16,9 C16,9.55228 15.5523,10 15,10 C14.4477,10 14,9.55228 14,9 C14,8.44772 14.4477,8 15,8 Z M15,14 C15.5523,14 16,14.4477 16,15 C16,15.5523 15.5523,16 15,16 C14.4477,16 14,15.5523 14,15 C14,14.4477 14.4477,14 15,14 Z" fill="url(#forkGradient)" fill-rule="nonzero"></path>
    </g>
</svg>