<?xml version="1.0" encoding="UTF-8"?>
<svg width="20px" height="20px" viewBox="0 0 20 20" version="1.1" xmlns="http://www.w3.org/2000/svg">
    <title>Game</title>
    <defs>
        <linearGradient x1="0%" y1="0%" x2="100%" y2="100%" id="gameGradient">
            <stop stop-color="#60A5FA" offset="0%"></stop>
            <stop stop-color="#3B82F6" offset="100%"></stop>
        </linearGradient>
    </defs>
    <g stroke="none" stroke-width="1" fill="none" fill-rule="evenodd">
        <path d="M6.75,8 L6.75,6.75 L8,6.75 L8,5.25 L6.75,5.25 L6.75,4 L5.25,4 L5.25,5.25 L4,5.25 L4,6.75 L5.25,6.75 L5.25,8 L6.75,8 Z M11.75,6 C11.1977,6 10.75,6.44772 10.75,7 C10.75,7.55228 11.1977,8 11.75,8 C12.3023,8 12.75,7.55228 12.75,7 C12.75,6.44772 12.3023,6 11.75,6 Z M14.25,4 C13.6977,4 13.25,4.44772 13.25,5 C13.25,5.55228 13.6977,6 14.25,6 C14.8023,6 15.25,5.55228 15.25,5 C15.25,4.44772 14.8023,4 14.25,4 Z M9.5,2 C8.67157,2 8,2.67157 8,3.5 L8,4 L3.5,4 C2,4 2,6 2,6 L2,15 C2,16.1046 2.89543,17 4,17 L16,17 C17.1046,17 18,16.1046 18,15 L18,7 C18,5.89543 17.1046,5 16,5 L13,5 L13,3.5 C13,2.67157 12.3284,2 11.5,2 L9.5,2 Z M9.5,3.5 L11.5,3.5 L11.5,5 L9.5,5 L9.5,3.5 Z M16,6.5 L16,15 L4,15 L4,8.5 L7.5,8.5 L7.5,10 C7.5,10.8284 8.17157,11.5 9,11.5 L13,11.5 C13.8284,11.5 14.5,10.8284 14.5,10 L14.5,8.5 L16,8.5 L16,6.5 Z" fill="url(#gameGradient)" fill-rule="nonzero"></path>
    </g>
</svg>