<?xml version="1.0" encoding="UTF-8"?>
<svg width="24px" height="24px" viewBox="0 0 24 24" version="1.1" xmlns="http://www.w3.org/2000/svg" xmlns:xlink="http://www.w3.org/1999/xlink">
    <g stroke="none" stroke-width="1" fill="none" fill-rule="evenodd">
        <g fill="#000000" fill-rule="nonzero">
            <path d="M21,6H3C1.9,6 1,6.9 1,8v8c0,1.1 0.9,2 2,2h18c1.1,0 2-0.9 2-2V8C23,6.9 22.1,6 21,6zM11,13H8v3H6v-3H3v-2h3V8h2v3h3V13zM15.5,15c-0.83,0 -1.5,-0.67 -1.5,-1.5c0,-0.83 0.67,-1.5 1.5,-1.5c0.83,0 1.5,0.67 1.5,1.5C17,14.33 16.33,15 15.5,15zM19.5,12c-0.83,0 -1.5,-0.67 -1.5,-1.5c0,-0.83 0.67,-1.5 1.5,-1.5c0.83,0 1.5,0.67 1.5,1.5C21,11.33 20.33,12 19.5,12z"></path>
        </g>
    </g>
</svg>