<?xml version="1.0" encoding="UTF-8"?>
<svg width="24px" height="24px" viewBox="0 0 24 24" version="1.1" xmlns="http://www.w3.org/2000/svg" xmlns:xlink="http://www.w3.org/1999/xlink">
    <g stroke="none" stroke-width="1" fill="none" fill-rule="evenodd">
        <g fill="#000000" fill-rule="nonzero">
            <path d="M12,2 C6.48,2 2,6.48 2,12 C2,16.42 5.1,20.08 9.25,21.31 C9.83,21.42 10.05,21.05 10.05,20.74 C10.05,20.47 10.04,19.74 10.03,18.94 C7.05,19.53 6.39,17.6 6.39,17.6 C5.88,16.48 5.14,16.12 5.14,16.12 C4.14,15.49 5.21,15.5 5.21,15.5 C6.31,15.57 6.9,16.6 6.9,16.6 C7.89,18.14 9.42,17.65 10.07,17.35 C10.17,16.72 10.47,16.24 10.79,15.96 C8.38,15.68 5.87,14.86 5.87,11.06 C5.87,9.97 6.31,9.08 7,8.39 C6.88,8.1 6.5,7.08 7.1,5.66 C7.1,5.66 8,5.35 10.03,6.8 C10.97,6.55 12,6.42 13.02,6.42 C14.04,6.42 15.06,6.55 16,6.8 C18.02,5.35 18.92,5.66 18.92,5.66 C19.53,7.08 19.15,8.1 19.02,8.39 C19.71,9.08 20.15,9.97 20.15,11.06 C20.15,14.87 17.63,15.68 15.21,15.95 C15.61,16.29 16,16.96 16,18 C16,19.48 15.98,20.37 15.98,20.74 C15.98,21.05 16.19,21.42 16.78,21.31 C20.92,20.08 24,16.42 24,12 C24,6.48 19.52,2 12,2 Z"></path>
        </g>
    </g>
</svg>