<?xml version="1.0" encoding="UTF-8"?>
<svg width="20px" height="20px" viewBox="0 0 20 20" version="1.1" xmlns="http://www.w3.org/2000/svg">
    <title>Heart</title>
    <defs>
        <linearGradient x1="0%" y1="0%" x2="100%" y2="100%" id="heartGradient">
            <stop stop-color="#F87171" offset="0%"></stop>
            <stop stop-color="#EF4444" offset="100%"></stop>
        </linearGradient>
    </defs>
    <g stroke="none" stroke-width="1" fill="none" fill-rule="evenodd">
        <path d="M3.172,5.172 C3.92211,4.42189 4.93934,4 6,4 C7.06066,4 8.07789,4.42189 8.828,5.172 L10,6.343 L11.172,5.172 C11.9221,4.42189 12.9393,4 14,4 C15.0607,4 16.0779,4.42189 16.828,5.172 C17.5781,5.92211 18,6.93934 18,8 C18,9.06066 17.5781,10.0779 16.828,10.828 L10,17.657 L3.172,10.828 C2.42189,10.0779 2,9.06066 2,8 C2,6.93934 2.42189,5.92211 3.172,5.172 Z" fill="url(#heartGradient)" fill-rule="nonzero"></path>
    </g>
</svg>