<?xml version="1.0" encoding="UTF-8"?>
<svg width="20px" height="20px" viewBox="0 0 20 20" version="1.1" xmlns="http://www.w3.org/2000/svg">
    <title>Leaf</title>
    <defs>
        <linearGradient x1="0%" y1="0%" x2="100%" y2="100%" id="leafGradient">
            <stop stop-color="#4ADE80" offset="0%"></stop>
            <stop stop-color="#22C55E" offset="100%"></stop>
        </linearGradient>
    </defs>
    <g stroke="none" stroke-width="1" fill="none" fill-rule="evenodd">
        <path d="M4,1 C2.9,1 2,1.9 2,3 C2,4.14621 2,10.5131 2,12 C2,13.5 3,15.5 5,16.5 C5.36,16.7 6.1,17.028 7,17.316 L7,14.983 C6.584,14.834 6.2,14.65 5.9,14.5 C4.5,13.75 4,12.5 4,12 C4,11.5 4,4 4,3 L17,3 L17,9.044 L19,9.044 L19,3 C19,1.9 18.1,1 17,1 L4,1 Z M15.4825,10.0325 L17.6075,12.1575 C18.13,12.68 18.13,13.52 17.6075,14.0425 L14.0425,17.6075 C13.7813,17.8688 13.4144,18 13.0475,18 C12.6806,18 12.3138,17.8688 12.0525,17.6075 L9.9275,15.4825 L8.4425,16.9675 C8.1475,17.2625 7.6725,17.0675 7.6725,16.6575 L7.6725,11.6675 C7.6725,11.2975 7.9725,11 8.3425,11 L13.3325,11 C13.7425,11 13.9375,11.475 13.6425,11.77 L12.1575,13.255 L14.2825,15.38 L16.8,12.8625 L15.4825,11.545 C15.1875,11.25 15.1875,10.7775 15.4825,10.0325 Z" fill="url(#leafGradient)" fill-rule="nonzero"></path>
    </g>
</svg>