<?xml version="1.0" encoding="UTF-8"?>
<svg width="24px" height="24px" viewBox="0 0 24 24" version="1.1" xmlns="http://www.w3.org/2000/svg" xmlns:xlink="http://www.w3.org/1999/xlink">
    <g stroke="none" stroke-width="1" fill="none" fill-rule="evenodd">
        <g fill="#000000" fill-rule="nonzero">
            <path d="M17.09,11.56 C16.99,11.37 16.87,11.18 16.75,11 C17.87,9.52 18.31,8.03 18.31,6.68 C18.31,5.53 17.94,4.66 17.23,4.13 C16.5,3.59 15.5,3.45 14.34,3.73 C13.26,3.99 12.06,4.62 10.81,5.57 C10.61,5.5 10.4,5.45 10.18,5.43 C9.18,5.34 8.26,5.8 7.59,6.65 C7.1,7.28 6.77,8.14 6.65,9.19 C6.46,10.83 6.78,12.95 7.58,15.25 C8.4,17.59 8.92,18.96 9.13,19.4 C9.28,19.71 9.59,19.93 9.93,19.96 C10.01,19.97 10.09,19.97 10.17,19.96 C10.45,19.92 10.71,19.76 10.87,19.53 C11.07,19.24 12.31,17.34 13.35,14.8 C13.65,14.89 13.95,14.94 14.26,14.94 C14.34,14.94 14.43,14.94 14.52,14.93 C15.53,14.84 16.46,14.29 17.06,13.44 C17.69,12.53 17.93,11.58 17.09,11.56 Z M10.74,17.08 C10.16,18.23 9.57,19.14 9.16,19.72 C8.9,19.25 8.39,18.04 7.74,16.13 C7.03,14.08 6.75,12.23 6.91,10.84 C7.16,8.82 7.74,7.87 8.37,7.07 C8.86,6.43 9.53,6.09 10.27,6.16 C10.47,6.18 10.67,6.24 10.86,6.32 C9.42,7.65 8.07,9.51 6.95,11.84 C6.88,11.98 6.92,12.15 7.05,12.24 C7.11,12.29 7.17,12.31 7.24,12.31 C7.32,12.31 7.4,12.28 7.46,12.22 C8.6,11.27 9.98,10.38 11.45,9.67 C12.82,9 14.09,8.58 15.14,8.44 C15.33,9.37 15.15,10.48 14.63,11.65 C14.58,11.76 14.61,11.89 14.7,11.97 C14.76,12.02 14.83,12.05 14.9,12.05 C14.95,12.05 15,12.04 15.05,12.01 C15.45,11.79 15.82,11.5 16.15,11.16 C16.21,11.24 16.26,11.33 16.31,11.42 C16.62,11.94 16.64,12.53 16.35,13.02 C15.87,13.73 15.12,14.17 14.32,14.24 C13.99,14.27 13.68,14.22 13.37,14.11 C12.26,15.87 11.39,16.9 10.74,17.08 Z M14.72,4.4 C15.76,4.16 16.6,4.3 17.17,4.72 C17.74,5.14 18.03,5.84 18.03,6.82 C18.03,7.52 17.88,8.27 17.6,9.05 C17.51,8.84 17.39,8.64 17.25,8.45 C17.03,8.15 16.76,7.9 16.44,7.71 C15.55,7.14 14.28,7.05 12.79,7.42 C11.21,7.82 9.68,8.68 8.44,9.77 C8.58,8.98 8.79,8.32 9.08,7.82 C9.6,7.14 10.32,6.85 11.09,6.93 C11.28,6.95 11.47,7.01 11.65,7.09 C12.56,6.4 13.44,5.9 14.24,5.63 C14.4,5.57 14.56,5.52 14.72,5.48 L14.72,4.4 Z M9.53,12.89 C9.53,13.25 9.83,13.54 10.19,13.54 C10.56,13.54 10.85,13.25 10.85,12.89 C10.85,12.52 10.56,12.23 10.19,12.23 C9.83,12.23 9.53,12.52 9.53,12.89 Z M12.38,10.84 C12.38,11.2 12.67,11.49 13.03,11.49 C13.4,11.49 13.69,11.2 13.69,10.84 C13.69,10.47 13.4,10.18 13.03,10.18 C12.67,10.18 12.38,10.47 12.38,10.84 Z"></path>
        </g>
    </g>
</svg>