<?xml version="1.0" encoding="UTF-8"?>
<svg width="20px" height="20px" viewBox="0 0 20 20" version="1.1" xmlns="http://www.w3.org/2000/svg">
    <title>SDK/Library</title>
    <defs>
        <linearGradient x1="0%" y1="0%" x2="100%" y2="100%" id="sdkGradient">
            <stop stop-color="#C084FC" offset="0%"></stop>
            <stop stop-color="#9333EA" offset="100%"></stop>
        </linearGradient>
    </defs>
    <g stroke="none" stroke-width="1" fill="none" fill-rule="evenodd">
        <path d="M6.51329,1.99961 C6.05106,1.99961 5.67616,2.37452 5.67616,2.83675 L5.67616,3.67388 L3.16742,3.67388 C2.70519,3.67388 2.3303,4.04878 2.3303,4.51101 L2.3303,15.4883 C2.3303,15.9505 2.70519,16.3254 3.16742,16.3254 L16.8326,16.3254 C17.2948,16.3254 17.6697,15.9505 17.6697,15.4883 L17.6697,4.51101 C17.6697,4.04878 17.2948,3.67388 16.8326,3.67388 L14.3238,3.67388 L14.3238,2.83675 C14.3238,2.37452 13.9489,1.99961 13.4867,1.99961 L6.51329,1.99961 Z M6.51329,3.67388 L13.4867,3.67388 L13.4867,4.51101 L6.51329,4.51101 L6.51329,3.67388 Z M4.00454,6.18527 L15.9955,6.18527 L15.9955,14.6512 L4.00454,14.6512 L4.00454,6.18527 Z M10,8.13239 C9.22679,8.13239 8.55882,8.43573 8.0928,9.0424 C7.63842,9.63746 7.41123,10.4475 7.41123,11.4726 C7.41123,12.4809 7.63842,13.2841 8.0928,13.8823 C8.55882,14.4806 9.22679,14.7807 10,14.7807 C10.7816,14.7807 11.4528,14.4806 12.0137,13.8823 C12.5746,13.2841 12.855,12.4809 12.855,11.4726 C12.855,10.4475 12.5746,9.63746 12.0137,9.0424 C11.4528,8.43573 10.7816,8.13239 10,8.13239 Z M10,9.10894 C10.499,9.10894 10.8821,9.32452 11.1493,9.75567 C11.4248,10.1783 11.5626,10.7471 11.5626,11.4726 C11.5626,12.1813 11.4248,12.7501 11.1493,13.1812 C10.8821,13.6039 10.499,13.8163 10,13.8163 C9.50936,13.8163 9.12629,13.6039 8.85068,13.1812 C8.57507,12.7501 8.4373,12.1813 8.4373,11.4726 C8.4373,10.7386 8.57507,10.1698 8.85068,9.75567 C9.13451,9.32452 9.51758,9.10894 10,9.10894 Z" fill="url(#sdkGradient)" fill-rule="nonzero"></path>
    </g>
</svg>