<?xml version="1.0" encoding="UTF-8"?>
<svg width="24px" height="24px" viewBox="0 0 24 24" version="1.1" xmlns="http://www.w3.org/2000/svg" xmlns:xlink="http://www.w3.org/1999/xlink">
    <g stroke="none" stroke-width="1" fill="none" fill-rule="evenodd">
        <g fill="#000000" fill-rule="nonzero">
            <path d="M12,1 L3,5 L3,11 C3,16.55 6.84,21.74 12,23 C17.16,21.74 21,16.55 21,11 L21,5 L12,1 Z M12,4.18 L18,7.1 L18,11 C18,15.14 15.36,19.02 12,20.34 C8.64,19.02 6,15.14 6,11 L6,7.1 L12,4.18 Z M7.39,15.14 L9.4,17.16 C10.1,15.1 11.5,13.36 13.24,12.18 L11.92,10.86 C10.29,11.96 8.9,13.42 7.39,15.14 Z M10.93,10.63 L13.23,12.94 C14.33,12.27 15.57,11.84 16.88,11.73 L16.88,10.56 C15.38,10.66 13.96,11.22 12.76,12.12 L11.69,11.04 C12.31,10.44 13.03,9.95 13.83,9.6 L13.83,8.39 C12.61,8.9 11.53,9.63 10.64,10.55 L9.56,9.47 C10.46,8.58 11.51,7.86 12.68,7.34 L12.68,6.17 C11.1,6.86 9.72,7.92 8.64,9.24 L7.47,8.07 C6.77,8.9 6.15,9.87 5.67,10.93 L6.82,12.07 C7.14,11.34 7.54,10.65 8.03,10.03 L9.16,11.16 C8.68,11.78 8.29,12.47 7.96,13.21 L6.81,12.06 C6.58,12.5 6.39,12.95 6.22,13.42 L8.4,15.6 C8.75,14.67 9.2,13.85 9.75,13.13 L10.93,14.31 C10.38,15.03 9.93,15.85 9.59,16.78 L7.39,14.58 C7.21,15.1 7.07,15.63 6.97,16.17 L8.12,17.31 C8.19,16.9 8.29,16.5 8.41,16.12 L9.56,17.28 C9.45,17.67 9.35,18.08 9.28,18.5 L10.44,19.65 C10.73,18.82 11.08,18.03 11.51,17.31 L12.65,18.45 C12.36,18.96 12.11,19.51 11.91,20.09 C13.83,20.01 15.66,19.37 17.21,18.26 L16.05,17.11 C14.81,17.95 13.36,18.44 11.85,18.5 L11.51,18.16 C11.88,17.21 12.4,16.34 13.04,15.59 L11.9,14.45 C11.25,15.2 10.72,16.07 10.36,17.02 L9.39,16.05 C9.76,15.09 10.29,14.22 10.93,13.47 L9.79,12.33 C9.15,13.08 8.62,13.95 8.25,14.9 L7.39,14.04 C7.39,14.4 7.39,14.77 7.39,15.14 Z M12.06,7.35 L12.06,8.5 C11.06,8.91 10.14,9.51 9.36,10.26 L10.5,11.4 C11.08,10.84 11.78,10.39 12.56,10.1 L12.56,11.25 C12.01,11.5 11.52,11.84 11.09,12.27 L12.23,13.41 C12.57,13.07 12.99,12.81 13.45,12.66 L13.45,13.8 C13.24,13.89 13.05,14.01 12.88,14.17 L14.02,15.31 C14.22,15.12 14.44,14.96 14.66,14.81 L14.66,15.95 C14.54,16.03 14.43,16.12 14.32,16.23 L15.46,17.36 C15.76,17.08 16.03,16.77 16.29,16.43 L16.29,14.45 C16.29,13.04 16.92,11.73 17.98,10.84 L17.98,11.78 C17.15,12.56 16.67,13.67 16.67,14.85 L16.67,16.76 C17.45,15.88 18.07,14.86 18.51,13.76 L19.66,14.9 C19.14,16.18 18.36,17.35 17.4,18.33 L18.54,19.47 C19.87,18.05 20.87,16.33 21.5,14.46 L20.35,13.32 C20.04,14.22 19.63,15.07 19.11,15.85 L17.98,14.72 C18.5,13.94 18.91,13.08 19.22,12.18 L20.36,13.32 C20.46,12.56 20.5,11.79 20.5,11 L20.5,11 L20.5,6.46 L13.2,2.85 L13.2,4.03 C14.88,4.8 16.37,5.96 17.56,7.4 L17.56,9.96 C16.26,10.79 15.48,12.22 15.47,13.75 L15.47,15.22 C15.28,15.42 15.08,15.62 14.87,15.8 L13.73,14.66 C14.06,14.36 14.36,14.03 14.61,13.66 L14.61,12.52 C14.36,12.88 14.06,13.21 13.73,13.51 L12.59,12.37 C13.05,11.95 13.43,11.45 13.72,10.89 L13.72,9.75 C13.42,10.31 13.04,10.81 12.58,11.23 L11.45,10.09 C12.13,9.46 12.67,8.7 13.02,7.84 L13.02,6.7 C12.69,7.33 12.25,7.89 11.74,8.37 L10.6,7.24 C11.29,6.51 11.85,5.68 12.26,4.77 L11.12,3.63 C10.65,4.4 10.1,5.12 9.46,5.76 L10.6,6.9 C11.05,6.46 11.46,5.98 11.83,5.46 L11.83,6.61 C11.5,7.09 11.13,7.53 10.72,7.94 L9.58,6.8 C10.18,6.2 10.7,5.53 11.12,4.79 L11.12,3.65 C10.52,4.57 9.81,5.41 9,6.15 L10.14,7.29 C10.75,6.73 11.29,6.1 11.76,5.39 L11.76,6.53 C11.48,6.9 11.17,7.24 10.84,7.56 L9.7,6.42 C10.31,5.82 10.83,5.13 11.25,4.38 L11.25,3.24 C10.58,4.23 9.76,5.11 8.83,5.84 L9.96,6.97 C10.64,6.45 11.25,5.83 11.76,5.14 L11.76,6.28 C11.39,6.8 10.97,7.28 10.49,7.71 L9.36,6.57 C10.17,5.82 10.85,4.93 11.37,3.94 L11.37,2.8 C10.61,3.97 9.65,5 8.53,5.85 L9.67,6.99 C10.53,6.36 11.3,5.59 11.94,4.7 L11.94,5.84 C11.51,6.49 11,7.07 10.42,7.58 L9.28,6.44 C10.08,5.71 10.76,4.85 11.31,3.91 L11.31,2.77 C10.55,3.93 9.59,4.95 8.48,5.8 L9.62,6.94 C10.41,6.34 11.13,5.64 11.74,4.84 L11.74,5.99 C11.25,6.63 10.67,7.21 10.02,7.7 L11.16,8.84 C11.6,8.52 12.01,8.16 12.38,7.77 L12.38,8.91 C12.19,9.09 11.99,9.26 11.78,9.41 L12.92,10.54 C13.26,10.3 13.57,10.04 13.86,9.74 L13.86,10.88 C13.67,11.06 13.47,11.23 13.26,11.38 L14.4,12.52 C14.74,12.28 15.05,12.01 15.33,11.72 L15.33,12.86 C15.08,13.1 14.81,13.33 14.52,13.53 L15.66,14.67 C16.11,14.36 16.53,14.01 16.92,13.62 L16.92,12.48 C16.54,12.86 16.12,13.21 15.67,13.52 L14.53,12.38 C15.11,11.96 15.64,11.49 16.1,10.95 L16.1,9.81 C15.65,10.35 15.12,10.82 14.54,11.24 L13.4,10.1 C14.15,9.48 14.8,8.73 15.3,7.9 L15.3,6.76 C14.82,7.58 14.19,8.31 13.47,8.92 L12.33,7.78 C13.11,7.13 13.78,6.36 14.3,5.48 L14.3,4.34 C13.59,5.44 12.72,6.42 11.7,7.24 L10.56,6.1 C11.72,5.14 12.71,3.97 13.47,2.65 L12.33,1.51 C11.47,3.14 10.32,4.59 8.96,5.78 L10.1,6.91 C11.04,6.1 11.87,5.15 12.57,4.08 L12.57,5.23 C12.03,6.07 11.38,6.83 10.62,7.49 L9.48,6.35 C10.35,5.57 11.1,4.66 11.69,3.66 L11.69,2.52 C10.96,3.71 10.01,4.73 8.91,5.57 L10.05,6.71 C10.84,6.1 11.52,5.37 12.07,4.56 L12.07,5.7 C11.61,6.35 11.07,6.94 10.47,7.45 L9.33,6.31 C10.09,5.64 10.76,4.86 11.32,3.99 L11.32,2.85 C10.55,3.99 9.61,5 8.53,5.85 L9.66,6.98 C10.43,6.36 11.11,5.62 11.7,4.8 L11.7,5.94 C11.23,6.61 10.66,7.21 10.01,7.72 L11.15,8.86 C11.6,8.53 12.02,8.16 12.39,7.76 L12.39,8.9 C12.19,9.09 11.98,9.27 11.76,9.42 L12.9,10.56 C13.25,10.31 13.57,10.04 13.87,9.73 L13.87,10.87 C13.68,11.06 13.47,11.23 13.25,11.39 L14.39,12.53 C14.74,12.28 15.06,12.01 15.35,11.71 L15.35,12.85 C15.1,13.1 14.83,13.33 14.54,13.53 L15.68,14.67 C16.14,14.36 16.57,14 16.97,13.59 L16.97,12.45 C16.59,12.85 16.16,13.2 15.7,13.52 L14.56,12.38 C15.14,11.95 15.67,11.47 16.12,10.92 L16.12,9.78 C15.66,10.32 15.13,10.8 14.54,11.22 L13.41,10.08 C14.16,9.45 14.82,8.69 15.34,7.83 L15.34,6.69 C14.83,7.55 14.17,8.3 13.43,8.92 L12.29,7.78 C13.1,7.11 13.8,6.31 14.33,5.41 L14.33,4.26 C13.69,5.34 12.84,6.3 11.84,7.09 L10.7,5.95 C11.78,5.08 12.7,4.01 13.43,2.8 L12.29,1.66 C11.5,3.12 10.41,4.4 9.07,5.43 L10.21,6.56 C11.27,5.72 12.19,4.7 12.91,3.53 L12.91,4.68 C12.32,5.64 11.56,6.48 10.68,7.16 L9.54,6.02 C10.58,5.16 11.46,4.11 12.13,2.93 L12.13,2.02 L12,1.94 L12,1.94 L4.38,5.55 L4.5,5.64 L4.5,11 C4.5,11.77 4.55,12.54 4.64,13.3 L5.79,14.44 C5.69,13.65 5.64,12.84 5.64,12.03 L5.64,6.49 L12.06,2.87 L12.06,3.94 C11.53,4.21 11.01,4.51 10.51,4.85 L10.51,4.85 C9.18,5.77 8.04,6.93 7.14,8.26 L8.27,9.39 C9.07,8.17 10.1,7.12 11.3,6.31 L11.3,7.12 C10.77,7.51 10.3,7.96 9.87,8.45 L11.01,9.59 C11.35,9.21 11.73,8.87 12.15,8.57 L12.15,9.71 C11.9,9.88 11.67,10.07 11.45,10.28 L12.59,11.42 C12.95,11.06 13.36,10.77 13.81,10.54 L13.81,11.68 C13.63,11.8 13.46,11.93 13.31,12.08 L14.44,13.22 C14.73,12.93 15.06,12.7 15.41,12.51 L15.41,13.65 C15.25,13.76 15.1,13.88 14.95,14.02 L16.09,15.16 C16.45,14.81 16.77,14.41 17.04,13.98 L17.04,12.84 C16.78,13.27 16.46,13.66 16.1,14.01 L14.96,12.87 C15.55,12.36 16.06,11.74 16.47,11.06 L16.47,9.92 C16.06,10.61 15.55,11.23 14.96,11.74 L13.82,10.6 C14.53,9.9 15.1,9.07 15.5,8.15 L15.5,7.01 C15.11,7.93 14.53,8.76 13.82,9.46 L12.68,8.32 C13.48,7.43 14.08,6.36 14.45,5.19 L14.45,4.05 C14.01,5.49 13.18,6.76 12.06,7.72 L12.06,7.37 L12.06,7.35 Z"></path>
        </g>
    </g>
</svg>