<?xml version="1.0" encoding="UTF-8"?>
<svg width="24px" height="24px" viewBox="0 0 24 24" version="1.1" xmlns="http://www.w3.org/2000/svg">
    <title>Telegram</title>
    <defs>
        <linearGradient x1="0%" y1="0%" x2="100%" y2="100%" id="telegramGradient">
            <stop stop-color="#0EA5E9" offset="0%"></stop>
            <stop stop-color="#38BDF8" offset="100%"></stop>
        </linearGradient>
    </defs>
    <g stroke="none" stroke-width="1" fill="none" fill-rule="evenodd">
        <path d="M12,2 C6.48,2 2,6.48 2,12 C2,17.52 6.48,22 12,22 C17.52,22 22,17.52 22,12 C22,6.48 17.52,2 12,2 Z M16.64,8.8 C16.49,10.38 15.84,14.22 15.51,15.99 C15.37,16.74 15.09,16.99 14.83,17.02 C14.25,17.07 13.81,16.64 13.25,16.27 C12.37,15.69 11.87,15.33 11.02,14.77 C10.03,14.12 10.67,13.76 11.24,13.18 C11.39,13.03 13.95,10.7 14,10.49 C14.0069435,10.4359535 14.0031235,10.3813816 13.9889274,10.3292203 C13.9747312,10.277059 13.9504864,10.2283132 13.9175358,10.1856941 C13.8845852,10.143075 13.8435672,10.1073448 13.7968574,10.0803333 C13.7501475,10.0533218 13.6984977,10.0355262 13.645,10.028 C13.52,10.01 13.395,10.06 13.32,10.11 C13.24,10.17 11.18,11.56 7.14,14.28 C6.74,14.55 6.4,14.68 6.1,14.68 C5.77,14.68 5.14,14.5 4.67,14.35 C4.09,14.16 3.63,14.06 3.67,13.73 C3.69,13.56 3.92,13.38 4.36,13.2 C8.64,11.25 11.55,9.97 13.08,9.35 C14.75,8.62 15.11,8.5 15.35,8.5 C15.43,8.5 15.61,8.52 15.73,8.62 C15.82,8.7 15.85,8.81 15.86,8.88 C15.86,8.96 15.87,9.21 15.85,9.39 L16.64,8.8 Z" fill="url(#telegramGradient)" fill-rule="nonzero"></path>
    </g>
</svg>