<?xml version="1.0" encoding="UTF-8"?>
<svg width="20px" height="20px" viewBox="0 0 20 20" version="1.1" xmlns="http://www.w3.org/2000/svg">
    <title>Verified</title>
    <defs>
        <linearGradient x1="0%" y1="0%" x2="100%" y2="100%" id="verifiedGradientDark">
            <stop stop-color="#3B82F6" offset="0%"></stop>
            <stop stop-color="#2563EB" offset="100%"></stop>
        </linearGradient>
        <linearGradient x1="0%" y1="0%" x2="100%" y2="100%" id="verifiedGradientLight">
            <stop stop-color="#F97316" offset="0%"></stop>
            <stop stop-color="#EA580C" offset="100%"></stop>
        </linearGradient>
    </defs>
    <g stroke="none" stroke-width="1" fill="none" fill-rule="evenodd">
        <path d="M10,2 C10.286,2.00008 10.5557,2.12348 10.743,2.337 L12.343,4.157 L14.497,4.527 C14.9222,4.60558 15.2716,4.93443 15.378,5.356 L15.82,7.502 L17.336,9.246 C17.6193,9.5695 17.6896,10.0236 17.517,10.415 L16.745,12.481 L17.016,14.627 C17.0811,15.0525 16.9071,15.4779 16.571,15.729 L14.73,17.117 L12.82,18.407 C12.4776,18.6411 12.0354,18.6411 11.693,18.407 L9.78,17.116 L7.938,15.724 C7.60112,15.4732 7.42633,15.0474 7.491,14.622 L7.761,12.481 L6.99,10.415 C6.81673,10.0237 6.88682,9.56959 7.17,9.246 L8.684,7.502 L9.127,5.356 C9.23343,4.93443 9.58282,4.60558 10.008,4.527 L12.162,4.157 L13.763,2.337 C13.9503,2.12348 14.22,2.00008 14.506,2 L10,2 Z M14.5,4 L12.85,5.32 C12.7655,5.42321 12.6365,5.4764 12.506,5.464 L9.8,5.92 L9.26,8.605 C9.24711,8.7349 9.17546,8.84777 9.068,8.915 L7.1,10.4 L8.03,13.02 C8.06143,13.1487 8.03675,13.286 7.962,13.392 L6.616,15.359 L8.85,17.021 C8.95425,17.102 9.02055,17.2227 9.033,17.354 L9.147,19.5 L11.5,18 C11.6461,17.9141 11.8189,17.9141 11.965,18 L14.318,19.5 L14.432,17.354 C14.4447,17.2229 14.5114,17.1022 14.616,17.021 L16.85,15.359 L15.5,13.393 C15.4253,13.2869 15.4007,13.1496 15.432,13.021 L16.364,10.4 L14.398,8.917 C14.2908,8.84952 14.2193,8.73682 14.206,8.607 L13.667,5.92 L10.96,5.465 C10.8297,5.47779 10.7009,5.42454 10.617,5.321 L8.965,4 L14.5,4 Z M10.866,8.142 L13.342,10.571 C13.4394,10.6659 13.4928,10.8002 13.4863,10.9374 C13.4797,11.0746 13.414,11.203 13.308,11.288 L9.11,14.714 C8.99397,14.8076 8.83613,14.839 8.689,14.7957 C8.54187,14.7524 8.42822,14.6398 8.383,14.493 L7.09,10.648 C7.04732,10.5084 7.06396,10.3553 7.14486,10.2316 C7.22576,10.108 7.36175,10.0272 7.509,10.009 L8.406,9.902 C8.52236,9.88802 8.63928,9.84013 8.736,9.765 L10.465,8.51 C10.582,8.41882 10.7302,8.38252 10.8757,8.40996 C11.0213,8.4374 11.1504,8.52611 11.234,8.655 L10.866,8.142 Z" class="verified-icon-path" fill="url(#verifiedGradientDark)" fill-rule="nonzero"></path>
    </g>
</svg>