<?xml version="1.0" encoding="UTF-8"?>
<svg width="24px" height="24px" viewBox="0 0 24 24" version="1.1" xmlns="http://www.w3.org/2000/svg" xmlns:xlink="http://www.w3.org/1999/xlink">
    <g id="Page-1" stroke="none" stroke-width="1" fill="none" fill-rule="evenodd">
        <g id="verified" fill="#1D9BF0" fill-rule="nonzero">
            <path d="M22.5,12.5 C22.5,11.8 22.1,11.1 21.5,10.8 C20.8,10.3 20.4,9.6 20.5,8.8 C20.5,8 20.1,7.3 19.4,6.8 C18.7,6.4 18.3,5.6 18.2,4.8 C18.1,4 17.6,3.4 16.8,3.1 C16.1,2.8 15.5,2.2 15.3,1.4 C15.1,0.6 14.4,0.1 13.6,0 C12.8,0 12,0 11.3,0.1 C10.5,0.2 9.8,0.7 9.5,1.4 C9.3,2.1 8.7,2.8 8,3.1 C7.2,3.4 6.7,4 6.6,4.8 C6.5,5.6 6.1,6.3 5.4,6.8 C4.7,7.2 4.3,8 4.3,8.8 C4.3,9.6 3.9,10.3 3.3,10.7 C2.7,11.1 2.4,11.8 2.4,12.5 C2.4,13.2 2.8,13.9 3.4,14.2 C4.1,14.7 4.5,15.4 4.4,16.2 C4.4,17 4.8,17.7 5.5,18.2 C6.2,18.6 6.6,19.4 6.7,20.2 C6.8,21 7.3,21.6 8.1,21.9 C8.8,22.2 9.4,22.8 9.6,23.6 C9.8,24.4 10.5,24.9 11.3,25 C12.1,25 12.9,25 13.6,24.9 C14.4,24.8 15.1,24.3 15.4,23.6 C15.6,22.9 16.2,22.2 16.9,21.9 C17.7,21.6 18.2,21 18.3,20.2 C18.4,19.4 18.8,18.7 19.5,18.2 C20.2,17.8 20.6,17 20.6,16.2 C20.6,15.4 21,14.7 21.6,14.3 C22.2,13.9 22.5,13.2 22.5,12.5 Z M16.3,10 L11.3,15 L8.5,12.2 C8.1,11.8 8.1,11.2 8.5,10.8 C8.9,10.4 9.5,10.4 9.9,10.8 L11.3,12.2 L14.9,8.6 C15.3,8.2 15.9,8.2 16.3,8.6 C16.7,9 16.7,9.6 16.3,10 Z" id="Shape"></path>
        </g>
    </g>
</svg>