<?xml version="1.0" encoding="UTF-8"?>
<svg width="24px" height="24px" viewBox="0 0 24 24" version="1.1" xmlns="http://www.w3.org/2000/svg" xmlns:xlink="http://www.w3.org/1999/xlink">
    <g stroke="none" stroke-width="1" fill="none" fill-rule="evenodd">
        <g fill="#000000" fill-rule="nonzero">
            <path d="M19.5,15.5 C19.5,17.8 18.07,19.74 16,20.63 L16,22 L8,22 L8,20.63 C5.93,19.74 4.5,17.8 4.5,15.5 L4.5,10.5 C4.5,8.2 5.93,6.26 8,5.37 L8,3 L16,3 L16,5.37 C18.07,6.26 19.5,8.2 19.5,10.5 L19.5,15.5 Z M12,16 C14.21,16 16,14.21 16,12 C16,9.79 14.21,8 12,8 C9.79,8 8,9.79 8,12 C8,14.21 9.79,16 12,16 Z M14,12 C14,13.1 13.1,14 12,14 C10.9,14 10,13.1 10,12 C10,10.9 10.9,10 12,10 C13.1,10 14,10.9 14,12 Z"></path>
        </g>
    </g>
</svg>