<?xml version="1.0" encoding="UTF-8"?>
<svg width="20px" height="20px" viewBox="0 0 20 20" version="1.1" xmlns="http://www.w3.org/2000/svg">
    <title>Virus</title>
    <defs>
        <linearGradient x1="0%" y1="0%" x2="100%" y2="100%" id="virusGradient">
            <stop stop-color="#FB7185" offset="0%"></stop>
            <stop stop-color="#E11D48" offset="100%"></stop>
        </linearGradient>
    </defs>
    <g stroke="none" stroke-width="1" fill="none" fill-rule="evenodd">
        <path d="M10,2 C10.5523,2 11,2.44772 11,3 L11,3.59 C12.0296,3.88384 12.9649,4.45183 13.7,5.23 L14.13,4.8 C14.5205,4.40948 15.1534,4.40948 15.544,4.8 L16.2,5.46 C16.5905,5.85052 16.5905,6.48343 16.2,6.874 L15.77,7.3 C16.5482,8.03512 17.1162,8.97047 17.41,10 L18,10 C18.5523,10 19,10.4477 19,11 L19,12 C19,12.5523 18.5523,13 18,13 L17.41,13 C17.1162,14.0295 16.5482,14.9649 15.77,15.7 L16.2,16.13 C16.5905,16.5205 16.5905,17.1534 16.2,17.544 L15.54,18.2 C15.1495,18.5905 14.5166,18.5905 14.126,18.2 L13.7,17.77 C12.9649,18.5482 12.0296,19.1162 11,19.41 L11,20 C11,20.5523 10.5523,21 10,21 L9,21 C8.44772,21 8,20.5523 8,20 L8,19.41 C6.97047,19.1162 6.03512,18.5482 5.3,17.77 L4.87,18.2 C4.47948,18.5905 3.84657,18.5905 3.456,18.2 L2.8,17.54 C2.40948,17.1495 2.40948,16.5166 2.8,16.126 L3.23,15.7 C2.45183,14.9649 1.88384,14.0296 1.59,13 L1,13 C0.447715,13 0,12.5523 0,12 L0,11 C0,10.4477 0.447715,10 1,10 L1.59,10 C1.88384,8.97047 2.45183,8.03512 3.23,7.3 L2.8,6.87 C2.40948,6.47948 2.40948,5.84657 2.8,5.456 L3.46,4.8 C3.85052,4.40948 4.48343,4.40948 4.874,4.8 L5.3,5.23 C6.03512,4.45183 6.97047,3.88384 8,3.59 L8,3 C8,2.44772 8.44772,2 9,2 L10,2 Z M9.5,8 C8.67157,8 8,8.67157 8,9.5 C8,10.3284 8.67157,11 9.5,11 C10.3284,11 11,10.3284 11,9.5 C11,8.67157 10.3284,8 9.5,8 Z M6.5,11 C5.67157,11 5,11.6716 5,12.5 C5,13.3284 5.67157,14 6.5,14 C7.32843,14 8,13.3284 8,12.5 C8,11.6716 7.32843,11 6.5,11 Z M13.5,11 C12.6716,11 12,11.6716 12,12.5 C12,13.3284 12.6716,14 13.5,14 C14.3284,14 15,13.3284 15,12.5 C15,11.6716 14.3284,11 13.5,11 Z M9.5,15 C8.67157,15 8,15.6716 8,16.5 C8,17.3284 8.67157,18 9.5,18 C10.3284,18 11,17.3284 11,16.5 C11,15.6716 10.3284,15 9.5,15 Z" fill="url(#virusGradient)" fill-rule="nonzero" transform="translate(9.500000, 11.500000) scale(0.952381, 0.909091) translate(-9.500000, -11.500000)"></path>
    </g>
</svg>