<?xml version="1.0" encoding="UTF-8"?>
<svg width="20px" height="20px" viewBox="0 0 20 20" version="1.1" xmlns="http://www.w3.org/2000/svg">
    <title>Web</title>
    <defs>
        <linearGradient x1="0%" y1="0%" x2="100%" y2="100%" id="webGradient">
            <stop stop-color="#38BDF8" offset="0%"></stop>
            <stop stop-color="#0EA5E9" offset="100%"></stop>
        </linearGradient>
    </defs>
    <g stroke="none" stroke-width="1" fill="none" fill-rule="evenodd">
        <path d="M10,2 C14.4183,2 18,5.58172 18,10 C18,14.4183 14.4183,18 10,18 C5.58172,18 2,14.4183 2,10 C2,5.58172 5.58172,2 10,2 Z M10,4 C7.1,4 4.61,5.64 3.56,8 L4.5,8 C5.44,8 6.25,8.73 6.35,9.66 L6.82,13.5 C6.87,13.97 7.28,14.33 7.75,14.33 L8.5,14.33 C8.94,14.33 9.3,14 9.36,13.56 L9.5,12.33 L10.5,12.33 L10.64,13.55 C10.7,13.99 11.06,14.33 11.5,14.33 L12.25,14.33 C12.72,14.33 13.13,13.97 13.18,13.5 L13.65,9.66 C13.76,8.73 14.56,8 15.5,8 L16.44,8 C15.39,5.64 12.9,4 10,4 Z M10,8 C9.58579,8 9.25,8.33579 9.25,8.75 C9.25,9.16421 9.58579,9.5 10,9.5 C10.4142,9.5 10.75,9.16421 10.75,8.75 C10.75,8.33579 10.4142,8 10,8 Z M15.9,6 C14.93,5.07 13.74,4.39 12.43,4.08 C12.95,4.96 13.5,6.16 13.5,8 L15.5,8 C15.5,7.28 15.33,6.61 15.9,6 Z M7.57,4.08 C6.26,4.39 5.07,5.07 4.1,6 C3.77,6.61 3.5,7.28 3.5,8 L5.5,8 C5.5,6.16 6.05,4.96 7.57,4.08 Z" fill="url(#webGradient)" fill-rule="nonzero"></path>
    </g>
</svg>