<?xml version="1.0" encoding="UTF-8"?>
<svg width="24px" height="24px" viewBox="0 0 24 24" version="1.1" xmlns="http://www.w3.org/2000/svg" xmlns:xlink="http://www.w3.org/1999/xlink">
    <g stroke="none" stroke-width="1" fill="none" fill-rule="evenodd">
        <g fill="#000000" fill-rule="nonzero">
            <path d="M12,2 C6.48,2 2,6.48 2,12 C2,17.52 6.48,22 12,22 C17.52,22 22,17.52 22,12 C22,6.48 17.52,2 12,2 Z M4,12 C4,11.39 4.08,10.79 4.21,10.22 L8.99,15 L8.99,16 C8.99,17.1 9.89,18 10.99,18 L13.99,18 L13.99,17.13 L14.99,18.13 C14.08,19.32 12.89,20.19 11.5,20.57 L11.5,18.5 C11.5,17.67 10.83,17 10,17 L6,17 L6,15 C6,14.45 6.45,14 7,14 L8,14 L8,11 C8,10.45 8.45,10 9,10 L11,10 L11,8 L12,8 L12,7.5 C12,6.67 11.33,6 10.5,6 L10,6 L10,4.13 C12.99,4.86 15.28,7.05 16.16,9.95 L14.61,9.95 C14.06,9.95 13.61,10.4 13.61,10.95 L13.61,11.95 L9,11.95 L9,9.95 L10.95,9.95 L10.95,11.47 C10.95,11.73 11.21,11.88 11.43,11.73 L13.97,9.95 L16,9.95 L16,11.95 L15,11.95 L15,13.95 L16,13.95 L16,14.95 L19.74,14.95 C19.91,14.01 20,13.02 20,12 C20,7.66 17.3,4 13.47,3.07 L13.47,4.09 C13.47,5.14 14.32,5.99 15.37,5.99 L17,5.99 L17,7.99 C17,8.54 16.55,8.99 16,8.99 L14,8.99 L14,10.99 L19.42,10.99 C19.29,9.9 18.93,8.89 18.41,7.99 L19.2,7.99 C19.6,7.99 19.9,7.8 20.08,7.49 C20.64,8.86 20.98,10.37 20.98,11.98 L20.99,12 C20.99,16.65 17.64,20.39 13.18,20.96 L12.9,19.37 C12.8,18.77 12.46,18.26 11.95,18 L11.95,20 C7.86,19.5 4.62,16.12 4.11,11.95 L7.95,11.95 L7.95,13.95 L10.01,13.95 L10.01,11.95 L7.74,11.95 C7.92,11.34 8.2,10.77 8.55,10.26 L8.56,10.25 C8.92,9.73 9.35,9.27 9.83,8.86 L9.01,9.37 C8.79,9.49 8.69,9.76 8.81,9.98 L9.59,11.37 C9.71,11.59 9.98,11.69 10.2,11.57 L13.35,9.59 C13.57,9.47 13.67,9.2 13.55,8.98 L12.77,7.59 C12.65,7.37 12.38,7.27 12.16,7.39 L11.18,7.96 C11.75,7.68 12.36,7.47 13,7.34 L13,8.95 L13.93,8.95 L13.93,6 L14.93,6 L14.93,8.99 L16,8.99 L16,10.27 C16,10.58 16.32,10.76 16.57,10.59 L17.93,9.65 C17.75,9.31 17.54,8.99 17.31,8.69 L17.16,8.5 C16.66,7.85 16.05,7.3 15.36,6.87 L15.41,6.84 C15.76,7.06 16.09,7.31 16.39,7.59 L16.1,6.34 C15.73,6.08 15.33,5.86 14.91,5.68 L14.91,4.54 C14.51,4.39 14.09,4.26 13.66,4.18 L13.66,5.71 C13.66,6.11 13.35,6.42 12.95,6.42 L12.46,6.42 C12.28,6.42 12.11,6.34 11.98,6.21 C11.85,6.08 11.77,5.91 11.77,5.73 L11.77,4.05 C11.19,4.02 10.63,4.06 10.08,4.14 L10.08,5.5 C10.08,6.33 10.75,7 11.58,7 L12.08,7 L12.08,7.97 L11.08,7.97 L11.08,9.97 L9.08,9.97 C8.53,9.97 8.08,10.42 8.08,10.97 L8.08,13.97 L7.08,13.97 C6.53,13.97 6.08,14.42 6.08,14.97 L6.08,16.97 L10.08,16.97 C10.63,16.97 11.08,16.52 11.08,15.97 L11.08,13.97 L12.08,13.97 L12.08,17.97 L10.99,17.97 C9.89,17.97 8.99,17.07 8.99,15.97 L8.99,14.97 L4.34,10.32 C4.72,8.51 5.65,6.9 6.95,5.72 C7.37,5.38 7.82,5.08 8.3,4.82 L8.3,4.82 C8.3,4.82 8.3,4.82 8.31,4.82 C8.83,4.55 9.39,4.33 9.97,4.18 L9.97,5.58 C9.97,6.41 10.64,7.08 11.47,7.08 L11.97,7.08 L11.97,9.08 L9.97,9.08 C9.42,9.08 8.97,9.53 8.97,10.08 L8.97,13.08 L7.97,13.08 C7.42,13.08 6.97,13.53 6.97,14.08 L6.97,16.08 L10.97,16.08 C11.52,16.08 11.97,15.63 11.97,15.08 L11.97,13.08 L13.97,13.08 L13.97,17.08 L10.97,17.08 C9.87,17.08 8.97,16.18 8.97,15.08 L8.97,14.08 L4.36,9.46 C5.03,7.04 6.78,5.05 9.03,4.05 L9.03,5.5 C9.03,6.33 9.7,7 10.53,7 L11.03,7 L11.03,9 L9.03,9 C8.48,9 8.03,9.45 8.03,10 L8.03,13 L7.03,13 C6.48,13 6.03,13.45 6.03,14 L6.03,16 L10.03,16 C10.58,16 11.03,15.55 11.03,15 L11.03,13 L13.03,13 L13.03,17 L10.03,17 C8.93,17 8.03,16.1 8.03,15 L8.03,14 L4,9.97 C4,10.64 4,11.32 4,12 Z"></path>
        </g>
    </g>
</svg>